P3
16 16
255
254 252 250 	249 251 246 	255 255 253 	255 254 251 	255 250 245 	255 252 239 	255 245 222 	226 203 172 	204 188 154 	223 215 179 	239 242 215 	251 255 239 	251 255 250 	251 255 255 	251 250 255 	255 253 255 	
253 254 249 	255 255 251 	255 255 253 	255 253 251 	255 251 246 	243 221 210 	210 181 163 	177 147 121 	178 153 123 	196 181 150 	225 221 196 	253 255 237 	246 252 242 	252 255 253 	255 255 255 	255 254 255 	
253 252 250 	255 254 253 	255 248 249 	255 249 251 	255 236 235 	192 154 151 	137 93 82 	126 81 62 	162 121 99 	165 135 111 	198 181 161 	251 245 229 	254 254 244 	254 255 251 	254 255 255 	254 255 255 	
255 254 255 	255 253 255 	255 246 250 	255 249 251 	226 194 197 	125 83 84 	89 40 35 	101 53 41 	120 77 61 	129 96 79 	160 141 126 	235 225 213 	255 255 248 	255 255 251 	255 255 253 	254 255 255 	
255 253 255 	253 248 254 	255 251 255 	255 236 240 	163 134 138 	77 41 43 	81 41 39 	100 61 56 	113 79 70 	167 140 129 	181 164 154 	206 199 189 	241 238 233 	255 255 251 	255 255 253 	255 255 255 	
255 254 255 	252 249 255 	255 252 255 	211 199 203 	103 83 85 	63 37 38 	89 61 60 	101 73 70 	167 146 141 	253 238 231 	241 232 225 	186 183 176 	184 183 178 	244 244 242 	255 254 255 	255 254 255 	
251 255 255 	252 255 255 	247 247 249 	155 149 149 	69 59 58 	66 52 51 	76 62 61 	85 74 72 	165 157 154 	229 226 221 	228 229 223 	177 180 173 	141 143 138 	204 204 202 	255 254 255 	255 253 255 	
246 253 255 	251 255 255 	228 230 229 	116 115 111 	63 58 54 	72 65 59 	56 48 45 	71 66 63 	100 99 97 	124 126 123 	160 165 159 	175 180 174 	127 129 124 	161 162 157 	244 242 243 	255 254 255 	
248 255 255 	238 247 242 	168 171 164 	88 88 78 	72 65 55 	83 72 66 	74 63 59 	60 50 49 	87 81 81 	109 108 106 	100 102 97 	117 120 113 	119 122 115 	125 128 121 	206 207 202 	255 255 253 	
248 255 253 	237 247 239 	178 181 170 	120 118 106 	126 119 109 	148 138 129 	130 116 113 	96 84 84 	51 42 45 	69 67 68 	69 71 66 	80 85 78 	78 83 76 	110 115 108 	214 216 211 	254 255 251 	
249 255 251 	249 255 248 	182 183 175 	101 99 87 	78 71 61 	91 82 75 	86 75 73 	67 57 56 	27 21 23 	34 34 34 	38 44 40 	49 59 51 	47 58 50 	113 122 117 	233 238 234 	252 255 253 	
252 255 253 	254 255 251 	193 194 188 	82 82 74 	6 1 0 	4 0 0 	15 7 5 	32 26 26 	24 24 26 	13 19 19 	25 36 32 	44 59 54 	49 64 59 	137 148 144 	251 255 255 	252 255 255 	
255 255 255 	255 255 255 	236 238 235 	164 166 163 	95 95 93 	69 69 67 	79 79 79 	96 97 99 	93 102 101 	65 79 79 	62 81 77 	63 84 79 	49 68 64 	132 144 142 	250 254 255 	253 254 255 	
255 254 255 	255 255 255 	254 255 255 	252 255 255 	241 245 244 	222 226 225 	202 203 205 	180 184 185 	182 192 191 	145 161 158 	112 135 129 	79 101 98 	46 65 63 	116 128 128 	233 237 240 	255 254 255 	
255 254 255 	255 255 255 	252 255 255 	252 255 255 	252 255 255 	254 255 255 	252 252 252 	222 222 222 	215 221 219 	188 200 196 	151 170 164 	120 141 136 	104 120 117 	163 173 172 	253 253 255 	255 253 255 	
255 254 255 	255 255 255 	252 255 255 	251 255 255 	251 252 254 	255 255 255 	255 254 255 	255 254 255 	245 250 246 	234 245 239 	211 228 222 	197 216 210 	201 217 214 	237 247 246 	255 254 255 	251 245 249 	
